<?xml version="1.0" encoding="iso-8859-1"?>
<!-- Generator: Adobe Illustrator 19.0.0, SVG Export Plug-In . SVG Version: 6.00 Build 0)  -->
<svg version="1.1" id="Capa_1" xmlns="http://www.w3.org/2000/svg" xmlns:xlink="http://www.w3.org/1999/xlink" x="0px" y="0px"
	 viewBox="0 0 512 512" style="enable-background:new 0 0 512 512;" xml:space="preserve">
<g>
	<g>
		<path d="M508.99,174.855c-0.231-0.26-0.595-0.572-1.127-0.957L458,137.819V97.983c0-0.135-0.007-0.256-0.016-0.377
			c-0.094-2.47-1.094-4.875-2.914-6.695l-88-87.983c-1.655-1.655-3.796-2.614-6.027-2.849c-0.134-0.024-0.281-0.042-0.444-0.055
			c-0.038-0.002-0.076-0.009-0.114-0.01C360.335,0.005,360.174,0,360,0H84C67.458,0,54,13.458,54,30c0,5.522,4.478,10,10,10
			c5.522,0,10-4.478,10-10c0-5.514,4.486-10,10-10h266v57.983c0,16.542,13.458,30,30,30h58v123.874L328.473,341.385l-14.429-14.429
			c-32.006-32.006-84.082-32.006-116.088,0l-14.429,14.429L74,231.857V116h55.781c5.522,0,10-4.478,10-10c0-5.522-4.478-10-10-10
			H34.5c-5.522,0-10,4.478-10,10c0,5.522,4.478,10,10,10H54v21.819L4.138,173.898c-0.103,0.075-0.189,0.146-0.275,0.218
			C1.516,175.947,0,178.793,0,182v280c0,27.57,22.43,50,50,50h412c27.57,0,50-22.43,50-50V182
			C512,179.199,510.845,176.671,508.99,174.855z M380,87.984v-0.001c-5.514,0-10-4.486-10-10V34.139l53.854,53.845H380z
			 M458,162.506l28.633,20.719L458,211.857V162.506z M54,162.506v49.351l-28.633-28.633L54,162.506z M36.983,487.929
			c-0.241,0.241-0.466,0.491-0.678,0.75C26.634,483.693,20,473.61,20,462V206.143l149.385,149.385L36.983,487.929z M61.197,492
			l82-82H212c5.522,0,10-4.478,10-10c0-5.522-4.478-10-10-10h-48.803l48.902-48.901c24.207-24.207,63.596-24.207,87.803,0
			L396.803,438h-160.79c-5.522,0-10,4.478-10,10c0,5.522,4.478,10,10,10h177.733c0.93,0,1.827-0.137,2.682-0.375L450.803,492H61.197
			z M492,462c0,11.61-6.634,21.693-16.306,26.678c-0.211-0.258-0.437-0.509-0.678-0.75L464,476.912v-106.08c0-5.522-4.478-10-10-10
			c-5.522,0-10,4.478-10,10v86.08L342.615,355.527L492,206.143V462z"/>
	</g>
</g>
<g>
	<g>
		<path d="M461.069,322.84c-1.859-1.861-4.439-2.93-7.069-2.93s-5.21,1.069-7.07,2.93c-1.86,1.861-2.93,4.44-2.93,7.07
			s1.069,5.21,2.93,7.069c1.86,1.86,4.44,2.931,7.07,2.931s5.21-1.07,7.069-2.931c1.86-1.859,2.931-4.439,2.931-7.069
			S462.93,324.7,461.069,322.84z"/>
	</g>
</g>
<g>
	<g>
		<path d="M129.781,56h-46.26c-5.522,0-10,4.478-10,10s4.478,10,10,10h46.26c5.522,0,10-4.478,10-10
			C139.781,60.478,135.303,56,129.781,56z"/>
	</g>
</g>
<g>
	<g>
		<path d="M53.569,58.93C51.71,57.069,49.13,56,46.5,56s-5.21,1.069-7.07,2.93S36.5,63.37,36.5,66s1.069,5.21,2.93,7.069
			C41.29,74.93,43.87,76,46.5,76s5.21-1.07,7.069-2.931C55.43,71.21,56.5,68.63,56.5,66S55.43,60.79,53.569,58.93z"/>
	</g>
</g>
<g>
	<g>
		<path d="M17.069,58.93C15.21,57.069,12.63,56,10,56s-5.21,1.069-7.07,2.93S0,63.359,0,66c0,2.63,1.069,5.21,2.93,7.069
			C4.79,74.93,7.37,76,10,76s5.21-1.07,7.069-2.931C18.93,71.21,20,68.63,20,66S18.93,60.79,17.069,58.93z"/>
	</g>
</g>
<g>
	<g>
		<path d="M211.351,136h-24.353c-5.522,0-10,4.478-10,10v36v36c0,5.522,4.478,10,10,10c5.522,0,10-4.478,10-10v-26h14.353
			c15.439,0,28-12.561,28-28C239.351,148.561,226.79,136,211.351,136z M211.351,172h-14.353v-16h14.353c4.411,0,8,3.589,8,8
			S215.762,172,211.351,172z"/>
	</g>
</g>
<g>
	<g>
		<path d="M130.475,172c-5.423,0-9.834-3.589-9.834-8s4.411-8,9.834-8c5.422,0,9.833,3.589,9.833,8c0,5.522,4.478,10,10,10
			c5.522,0,10-4.478,10-10c0-15.439-13.383-28-29.833-28s-29.834,12.561-29.834,28c0,15.439,13.384,28,29.834,28
			c5.422,0,9.833,3.589,9.833,8s-4.411,8-9.833,8c-5.423,0-9.834-3.589-9.834-8c0-5.522-4.478-10-10-10c-5.522,0-10,4.478-10,10
			c0,15.439,13.384,28,29.834,28c16.45,0,29.833-12.561,29.833-28C160.308,184.561,146.925,172,130.475,172z"/>
	</g>
</g>
<g>
	<g>
		<path d="M314.361,214.488l-27-72c-1.464-3.902-5.195-6.488-9.363-6.488c-4.168,0-7.899,2.586-9.363,6.488l-27,72
			c-1.939,5.172,0.681,10.936,5.852,12.875c5.175,1.938,10.936-0.683,12.875-5.852l2.067-5.512h31.14l2.067,5.512
			c1.506,4.015,5.315,6.491,9.365,6.491c1.166,0,2.353-0.206,3.51-0.64C313.681,225.424,316.301,219.66,314.361,214.488z
			 M262.455,215.928l0.008-0.021C262.521,215.914,262.51,215.921,262.455,215.928z M269.928,196l8.07-21.52l8.07,21.52H269.928z"/>
	</g>
</g>
<g>
	<g>
		<path d="M404.879,136.64c-3.898-1.466-8.297-0.362-11.042,2.771l-20.991,23.964l-20.992-23.964
			c-2.745-3.134-7.144-4.236-11.042-2.771c-3.898,1.467-6.48,5.195-6.48,9.36v72c0,5.522,4.478,10,10,10c5.522,0,10-4.478,10-10
			v-45.408l10.992,12.548c1.899,2.168,4.641,3.411,7.522,3.411c2.881,0,5.623-1.243,7.522-3.411l10.991-12.548V218
			c0,5.522,4.478,10,10,10c5.522,0,10-4.478,10-10v-72C411.359,141.835,408.777,138.106,404.879,136.64z"/>
	</g>
</g>
<g>
</g>
<g>
</g>
<g>
</g>
<g>
</g>
<g>
</g>
<g>
</g>
<g>
</g>
<g>
</g>
<g>
</g>
<g>
</g>
<g>
</g>
<g>
</g>
<g>
</g>
<g>
</g>
<g>
</g>
</svg>
