<svg id="Capa_1" enable-background="new 0 0 512 512" height="512" viewBox="0 0 512 512" width="512" xmlns="http://www.w3.org/2000/svg"><g><g><g><g><g><path d="m491.449 68.703h-306.986c-5.827 0-10.551 4.724-10.551 10.551v109.392c0 5.825 4.722 10.547 10.547 10.547h22.068v31.017l41.363-31.017h243.561c5.825 0 10.547-4.722 10.547-10.547v-109.392c.002-5.827-4.722-10.551-10.549-10.551z" fill="#c4ead9"/></g><g><path d="m206.527 240.21c-1.525 0-3.057-.349-4.472-1.056-3.388-1.694-5.527-5.157-5.527-8.944v-21.017h-12.068c-11.33 0-20.548-9.217-20.548-20.547v-109.392c0-11.332 9.22-20.551 20.552-20.551h306.985c11.332 0 20.551 9.219 20.551 20.551v109.393c0 11.33-9.218 20.547-20.548 20.547h-240.227l-38.697 29.018c-1.764 1.321-3.877 1.998-6.001 1.998zm-22.063-161.507c-.305 0-.552.247-.552.551v109.393c0 .302.246.547.548.547h22.068c5.522 0 10 4.477 10 10v11.018l25.364-19.02c1.73-1.298 3.836-1.999 5.999-1.999h243.56c.302 0 .548-.245.548-.547v-109.392c0-.304-.247-.551-.551-.551z"/></g></g><g><g><g><path d="m440.286 117.453h-204.659c-5.522 0-10-4.478-10-10s4.478-10 10-10h204.659c5.522 0 10 4.478 10 10 0 5.523-4.477 10-10 10z"/></g></g><g><g><path d="m440.286 164.46h-36.02c-5.522 0-10-4.478-10-10 0-5.523 4.478-10 10-10h36.02c5.522 0 10 4.477 10 10 0 5.522-4.477 10-10 10z"/></g></g><g><g><path d="m354.27 164.46c-4.179 0-8.004-2.709-9.414-6.636-1.391-3.874-.195-8.327 2.946-10.986 3.274-2.771 8.099-3.134 11.745-.868 3.491 2.17 5.336 6.408 4.523 10.44-.931 4.615-5.083 8.05-9.8 8.05z"/></g></g><g><g><path d="m305.267 164.46h-69.64c-5.522 0-10-4.478-10-10 0-5.523 4.478-10 10-10h69.64c5.522 0 10 4.477 10 10 0 5.522-4.478 10-10 10z"/></g></g></g></g><g><g><g><g><circle cx="74.752" cy="63.096" fill="#ffcbbe" r="53.096"/></g><g><path d="m74.752 126.191c-34.791 0-63.096-28.305-63.096-63.096s28.305-63.095 63.096-63.095c34.792 0 63.097 28.305 63.097 63.096s-28.305 63.095-63.097 63.095zm0-106.191c-23.763 0-43.096 19.333-43.096 43.096s19.333 43.096 43.096 43.096c23.764 0 43.097-19.333 43.097-43.096s-19.333-43.096-43.097-43.096z"/></g></g><g><g><g><path d="m139.505 164.262c0-9.773-7.928-17.701-17.701-17.701h-94.103c-9.773 0-17.701 7.928-17.701 17.701v65.948h129.505z" fill="#8481e2"/></g><g><path d="m139.505 240.21h-129.505c-5.523 0-10-4.478-10-10v-65.948c0-15.274 12.427-27.701 27.701-27.701h94.103c15.274 0 27.701 12.427 27.701 27.701v65.948c0 5.522-4.478 10-10 10zm-119.505-20h109.505v-55.948c0-4.246-3.455-7.701-7.701-7.701h-94.103c-4.246 0-7.701 3.455-7.701 7.701z"/></g></g></g></g></g></g><g><g><g><path d="m20.551 340.493h306.986c5.827 0 10.551 4.724 10.551 10.551v109.392c0 5.825-4.722 10.547-10.547 10.547h-22.069v31.017l-41.363-31.017h-243.562c-5.825 0-10.547-4.722-10.547-10.547v-109.392c0-5.827 4.724-10.551 10.551-10.551z" fill="#ffd89e"/></g><g><path d="m305.473 512c-2.125 0-4.235-.677-6-1.999l-38.697-29.018h-240.228c-11.33 0-20.548-9.217-20.548-20.548v-109.391c0-11.332 9.219-20.551 20.551-20.551h306.985c11.332 0 20.552 9.219 20.552 20.551v109.392c0 11.33-9.218 20.548-20.548 20.548h-12.068v21.016c0 3.787-2.14 7.25-5.527 8.944-1.416.707-2.948 1.056-4.472 1.056zm-284.922-161.507c-.304 0-.551.247-.551.551v109.392c0 .302.246.548.548.548h243.561c2.163 0 4.269.701 5.999 1.999l25.364 19.02v-11.019c0-5.522 4.477-10 10-10h22.068c.302 0 .548-.246.548-.548v-109.392c0-.304-.247-.551-.552-.551z"/></g></g><g><g><g><path d="m276.373 389.243h-204.659c-5.522 0-10-4.478-10-10s4.477-10 10-10h204.659c5.523 0 10 4.478 10 10 0 5.523-4.477 10-10 10z"/></g></g><g><g><path d="m107.733 436.249h-36.02c-5.522 0-10-4.477-10-10 0-5.522 4.477-10 10-10h36.02c5.522 0 10 4.478 10 10 0 5.523-4.477 10-10 10z"/></g></g><g><g><path d="m157.73 436.25c-4.184 0-7.994-2.707-9.405-6.636-1.403-3.906-.183-8.403 3.016-11.056 3.1-2.57 7.551-3.013 11.101-1.124 3.685 1.961 5.79 6.157 5.18 10.282-.713 4.833-5.006 8.534-9.892 8.534z"/></g></g><g><g><path d="m276.373 436.249h-69.64c-5.522 0-10-4.477-10-10 0-5.522 4.478-10 10-10h69.64c5.523 0 10 4.478 10 10 0 5.523-4.477 10-10 10z"/></g></g></g></g><g><g><g><g><circle cx="437.248" cy="334.886" fill="#ffcbbe" r="53.096"/></g><g><path d="m437.248 397.981c-34.792 0-63.097-28.305-63.097-63.096s28.305-63.096 63.097-63.096c34.791 0 63.096 28.305 63.096 63.096 0 34.792-28.305 63.096-63.096 63.096zm0-106.191c-23.764 0-43.097 19.333-43.097 43.096s19.333 43.096 43.097 43.096c23.763 0 43.096-19.333 43.096-43.096s-19.333-43.096-43.096-43.096z"/></g></g><g><g><g><path d="m372.495 436.052c0-9.773 7.928-17.702 17.701-17.702h94.102c9.773 0 17.701 7.928 17.701 17.702v65.948h-129.504z" fill="#f5737f"/></g><g><path d="m502 512h-129.505c-5.522 0-10-4.478-10-10v-65.948c0-15.274 12.427-27.701 27.701-27.701h94.103c15.274 0 27.701 12.427 27.701 27.701v65.948c0 5.522-4.478 10-10 10zm-119.505-20h109.505v-55.948c0-4.246-3.455-7.701-7.701-7.701h-94.103c-4.246 0-7.701 3.455-7.701 7.701z"/></g></g></g></g></g></g></svg>